<svg width="93" height="84" viewBox="0 0 93 84" fill="none" xmlns="http://www.w3.org/2000/svg">
<path d="M18.4934 23.1366C6.49373 34.6567 -0.00623093 48.9448 13.9933 60.9308C25.9938 71.2054 35.4937 77.9847 55.9936 73.3757C76.4935 68.7666 84.349 59.2275 84.349 44.7831C84.3489 30.9723 73.0913 27.8512 60.9934 16.2234C37.4938 -6.36306 28.2515 13.7685 18.4934 23.1366Z" fill="#92C4FF"/>
<path d="M78.0001 30.895C78.0001 59.4842 67.0001 64.5563 56.0001 69.6877C45.0002 74.8191 25.5001 81.6176 17.5001 69.1675C9.72013 57.0598 18.475 53.1006 15.0001 42.4229C10.5001 28.5953 16.6704 11.2914 31.5001 13.3725C54.5001 16.6002 78.0001 7.67432 78.0001 30.895Z" fill="#907AFF"/>
</svg>
